<svg width="340" height="342" viewBox="0 0 340 342" fill="none" xmlns="http://www.w3.org/2000/svg">
<circle cx="170" cy="172" r="170" fill="#D7E9F2"/>
<path fill-rule="evenodd" clip-rule="evenodd" d="M226.058 123.077C206.29 105.416 181.01 54.0143 198.672 34.2455L198.379 33.984C184.244 49.806 176.972 70.5951 178.164 91.7784C179.356 112.962 188.914 132.804 204.736 146.94C214.229 155.421 219.964 167.327 220.68 180.037C221.202 189.304 219.024 198.445 214.519 206.396L213.563 187.732H197.139L194.074 209.905L192.581 221.048L191.009 209.849L187.552 187.732H169.124L166.761 230.367C163.239 229.924 159.785 229.093 156.463 227.894L166.733 187.732H155.024L151.959 204.727L149.72 218.628L147.009 204.727L142.961 187.732H128.07L135.253 212.708C129.073 204.975 125.392 195.462 124.827 185.448C124.109 172.738 128.469 160.263 136.949 150.769C143.948 142.934 149.336 133.797 152.804 123.881C156.272 113.964 157.753 103.461 157.162 92.9716C156.571 82.4824 153.92 72.2124 149.361 62.7477C144.801 53.2831 138.421 44.8092 130.586 37.81L130.327 38.1004C150.092 55.7589 130.755 109.656 113.099 129.434L113.095 129.431C102.553 141.23 95.7466 155.89 93.5365 171.557C91.5566 185.594 93.3455 199.874 98.6773 212.945L90.7249 253.689H102.277L103.77 243.165H114.929L116.697 253.689H131.117L130.517 250.675C131.045 251.003 131.578 251.325 132.114 251.642C145.742 259.679 161.449 263.495 177.246 262.607C188.625 261.966 199.682 258.906 209.703 253.689H216.942L216.731 249.561C217.147 249.287 217.561 249.009 217.973 248.727L217.004 253.689H228.556L230.049 243.165H241.208L242.976 253.689H257.397L248.437 208.658C253.506 193.861 254.127 177.897 250.217 162.745C246.264 147.424 237.856 133.619 226.058 123.077ZM238.67 228.066C242.673 222.245 245.909 215.889 248.267 209.149C248.324 208.985 248.381 208.822 248.437 208.658L244.273 187.732H228.045L228.988 192.29L217.973 248.727C218.951 248.057 219.915 247.364 220.865 246.649C226.595 242.336 231.687 237.297 236.029 231.684H239.283L238.67 228.066ZM238.67 228.066C237.824 229.296 236.943 230.503 236.029 231.684H231.66L235.118 207.091L238.67 228.066ZM202.982 220.025L204.722 253.689H209.703C212.108 252.436 214.454 251.059 216.731 249.561L214.519 206.396C212.845 209.351 210.849 212.142 208.551 214.714C206.829 216.643 204.965 218.417 202.982 220.025ZM199.395 222.667C200.629 221.844 201.826 220.963 202.982 220.025L202.718 214.914L202.247 200.619L199.395 222.667ZM183.254 229.579L185.98 247.104H196.235L199.395 222.667C194.496 225.937 189.024 228.285 183.254 229.579ZM178.026 230.451L178.514 214.914L178.75 200.619L183.254 229.579C181.536 229.964 179.791 230.256 178.026 230.451ZM178.026 230.451L177.296 253.689H165.469L166.761 230.367C169.625 230.727 172.535 230.83 175.457 230.665C176.318 230.617 177.174 230.545 178.026 230.451ZM109.478 231.684C115.28 239.185 122.396 245.627 130.517 250.675L117.994 187.732H101.766L102.709 192.29L98.6773 212.945C99.2968 214.464 99.9641 215.966 100.679 217.45C102.26 220.733 104.057 223.89 106.053 226.904L105.381 231.684H109.478ZM109.478 231.684H113.003L108.838 207.091L106.053 226.904C107.137 228.541 108.279 230.135 109.478 231.684ZM135.253 212.708L141.115 233.091V253.689H155.221V232.753L156.463 227.894C150.739 225.829 145.404 222.676 140.777 218.544C138.763 216.744 136.917 214.791 135.253 212.708ZM271.441 253.689H258.946V193.022L257.021 187.732H271.481L278.71 209.117L285.626 230.446L283.7 205.403V187.732H296.235V253.689H284.251L274.899 227.632L269.123 211.312L271.441 232.922V253.689ZM69.3515 254.083C71.1066 254.608 72.9926 254.87 75.0096 254.87C79.8556 254.87 83.549 252.938 86.0899 249.074C88.657 245.172 89.9405 239.507 89.9405 232.078C89.9405 227.501 89.0368 223.618 87.2294 220.429C85.4482 217.24 82.6453 214.482 78.8209 212.156C78.4542 211.818 77.9041 211.387 77.1706 210.862C76.4634 210.299 75.9002 209.83 75.4811 209.455C75.0882 209.079 74.6559 208.629 74.1844 208.104C73.7129 207.579 73.3724 206.997 73.1628 206.359C72.9533 205.722 72.8485 205.009 72.8485 204.221C72.8485 201.219 74.525 199.719 77.8779 199.719C79.2662 199.719 80.72 200.15 82.2393 201.013C83.7848 201.838 85.0683 203.114 86.0899 204.84L88.0545 193.978C87.9759 193.791 87.845 193.547 87.6616 193.247C87.4782 192.909 87.0329 192.346 86.3257 191.558C85.6446 190.733 84.885 190.02 84.0467 189.42C83.2085 188.82 82.0428 188.276 80.5497 187.788C79.0828 187.263 77.5112 187 75.8347 187C65.2782 187 60 193.697 60 207.091C60 209.567 60.2619 211.893 60.7858 214.069C61.3097 216.208 61.9122 217.971 62.5933 219.359C63.2743 220.71 64.1519 222.023 65.2258 223.299C66.326 224.537 67.2035 225.437 67.8584 226C68.5133 226.525 69.3122 227.126 70.2552 227.801C72.8485 229.602 74.669 231.14 75.7168 232.416C76.7908 233.691 77.3278 235.23 77.3278 237.031C77.3278 238.719 76.8563 239.882 75.9133 240.52C74.9965 241.158 73.4903 241.476 71.3947 241.476C69.2991 241.476 67.3476 240.726 65.5402 239.225C63.7327 237.687 62.292 235.886 61.2181 233.823L60.2358 247.498C60.7335 248.249 61.349 248.999 62.0825 249.749C62.8421 250.5 63.8113 251.287 64.9901 252.113C66.1689 252.938 67.6227 253.595 69.3515 254.083Z" fill="#130276"/>
<g style="mix-blend-mode:screen">
<path d="M224.058 121.077C204.29 103.416 179.01 52.0143 196.672 32.2455L196.379 31.984C182.244 47.806 174.972 68.5952 176.164 89.7784C177.356 110.962 186.914 130.804 202.736 144.94C212.229 153.421 217.964 165.327 218.68 178.037C219.396 190.747 215.033 203.221 206.551 212.714C198.072 222.21 186.167 227.948 173.457 228.665C160.747 229.384 148.272 225.023 138.777 216.544C129.282 208.063 123.544 196.159 122.827 183.448C122.109 170.738 126.469 158.263 134.948 148.769C141.948 140.934 147.336 131.797 150.804 121.881C154.272 111.964 155.753 101.461 155.162 90.9717C154.571 80.4824 151.92 70.2124 147.361 60.7477C142.801 51.2831 136.421 42.8092 128.586 35.81L128.327 36.1004C148.092 53.7589 128.755 107.656 111.099 127.434L111.095 127.431C100.553 139.23 93.7466 153.89 91.5365 169.558C89.3266 185.225 91.812 201.196 98.6789 215.45C105.545 229.706 116.484 241.604 130.114 249.642C143.742 257.679 159.449 261.495 175.246 260.607C191.043 259.718 206.222 254.165 218.865 244.649C231.506 235.134 241.042 222.084 246.267 207.149C251.492 192.214 252.17 176.065 248.217 160.745C244.264 145.424 235.856 131.619 224.058 121.077Z" fill="url(#paint0_linear_104_4006)"/>
</g>
<defs>
<linearGradient id="paint0_linear_104_4006" x1="164.333" y1="244.62" x2="184.799" y2="40.3257" gradientUnits="userSpaceOnUse">
<stop offset="0.295" stop-color="#E73959"/>
<stop offset="0.384" stop-color="#E73D58"/>
<stop offset="0.477" stop-color="#E74955"/>
<stop offset="0.571" stop-color="#E95E51"/>
<stop offset="0.666" stop-color="#EA7B4B"/>
<stop offset="0.761" stop-color="#EDA044"/>
<stop offset="0.857" stop-color="#EFCE3B"/>
<stop offset="0.868" stop-color="#F0D43A"/>
</linearGradient>
</defs>
</svg>
